<mxfile host="app.diagrams.net" modified="2023-09-02T12:58:12.564Z" agent="Mozilla/5.0 (Macintosh; Intel Mac OS X 10_15_7) AppleWebKit/537.36 (KHTML, like Gecko) Chrome/116.0.0.0 Safari/537.36" etag="ly_qCy8xCXt2Dass5FJo" version="21.7.2" type="google">
  <diagram name="Page-1" id="ZLWl8PB5b9Kju6c-kdJd">
    <mxGraphModel grid="1" page="1" gridSize="10" guides="1" tooltips="1" connect="1" arrows="1" fold="1" pageScale="1" pageWidth="827" pageHeight="1169" math="0" shadow="0">
      <root>
        <mxCell id="0" />
        <mxCell id="1" parent="0" />
        <mxCell id="FpYJ0FEo_ezxTA9CipsX-9" style="edgeStyle=orthogonalEdgeStyle;rounded=0;orthogonalLoop=1;jettySize=auto;html=1;entryX=0.75;entryY=0;entryDx=0;entryDy=0;" edge="1" parent="1" source="FpYJ0FEo_ezxTA9CipsX-1" target="FpYJ0FEo_ezxTA9CipsX-7">
          <mxGeometry relative="1" as="geometry" />
        </mxCell>
        <mxCell id="FpYJ0FEo_ezxTA9CipsX-1" value="global.css" style="rounded=1;whiteSpace=wrap;html=1;sketch=1;curveFitting=1;jiggle=2;" vertex="1" parent="1">
          <mxGeometry x="300" y="240" width="120" height="60" as="geometry" />
        </mxCell>
        <mxCell id="FpYJ0FEo_ezxTA9CipsX-18" style="edgeStyle=orthogonalEdgeStyle;rounded=0;orthogonalLoop=1;jettySize=auto;html=1;entryX=0.5;entryY=0;entryDx=0;entryDy=0;" edge="1" parent="1" source="FpYJ0FEo_ezxTA9CipsX-2" target="FpYJ0FEo_ezxTA9CipsX-1">
          <mxGeometry relative="1" as="geometry" />
        </mxCell>
        <mxCell id="FpYJ0FEo_ezxTA9CipsX-2" value="variables.css" style="rounded=1;whiteSpace=wrap;html=1;sketch=1;curveFitting=1;jiggle=2;" vertex="1" parent="1">
          <mxGeometry x="300" y="80" width="120" height="60" as="geometry" />
        </mxCell>
        <mxCell id="FpYJ0FEo_ezxTA9CipsX-10" style="edgeStyle=orthogonalEdgeStyle;rounded=0;orthogonalLoop=1;jettySize=auto;html=1;entryX=0.25;entryY=0;entryDx=0;entryDy=0;" edge="1" parent="1" source="FpYJ0FEo_ezxTA9CipsX-3" target="FpYJ0FEo_ezxTA9CipsX-7">
          <mxGeometry relative="1" as="geometry" />
        </mxCell>
        <mxCell id="FpYJ0FEo_ezxTA9CipsX-3" value="reset.css" style="rounded=1;whiteSpace=wrap;html=1;sketch=1;curveFitting=1;jiggle=2;" vertex="1" parent="1">
          <mxGeometry x="130" y="240" width="120" height="60" as="geometry" />
        </mxCell>
        <mxCell id="FpYJ0FEo_ezxTA9CipsX-20" style="edgeStyle=orthogonalEdgeStyle;rounded=0;orthogonalLoop=1;jettySize=auto;html=1;entryX=0.75;entryY=0;entryDx=0;entryDy=0;" edge="1" parent="1" source="FpYJ0FEo_ezxTA9CipsX-4" target="FpYJ0FEo_ezxTA9CipsX-1">
          <mxGeometry relative="1" as="geometry">
            <Array as="points">
              <mxPoint x="540" y="180" />
              <mxPoint x="390" y="180" />
            </Array>
          </mxGeometry>
        </mxCell>
        <mxCell id="FpYJ0FEo_ezxTA9CipsX-4" value="colors.css" style="rounded=1;whiteSpace=wrap;html=1;sketch=1;curveFitting=1;jiggle=2;" vertex="1" parent="1">
          <mxGeometry x="480" y="80" width="120" height="60" as="geometry" />
        </mxCell>
        <mxCell id="FpYJ0FEo_ezxTA9CipsX-19" style="edgeStyle=orthogonalEdgeStyle;rounded=0;orthogonalLoop=1;jettySize=auto;html=1;entryX=0.25;entryY=0;entryDx=0;entryDy=0;" edge="1" parent="1" source="FpYJ0FEo_ezxTA9CipsX-5" target="FpYJ0FEo_ezxTA9CipsX-1">
          <mxGeometry relative="1" as="geometry">
            <Array as="points">
              <mxPoint x="180" y="180" />
              <mxPoint x="330" y="180" />
            </Array>
          </mxGeometry>
        </mxCell>
        <mxCell id="FpYJ0FEo_ezxTA9CipsX-5" value="layout.css" style="rounded=1;whiteSpace=wrap;html=1;sketch=1;curveFitting=1;jiggle=2;" vertex="1" parent="1">
          <mxGeometry x="120" y="80" width="120" height="60" as="geometry" />
        </mxCell>
        <mxCell id="FpYJ0FEo_ezxTA9CipsX-6" value="first.css" style="rounded=1;whiteSpace=wrap;html=1;sketch=1;curveFitting=1;jiggle=2;" vertex="1" parent="1">
          <mxGeometry x="660" y="240" width="120" height="60" as="geometry" />
        </mxCell>
        <mxCell id="FpYJ0FEo_ezxTA9CipsX-23" style="edgeStyle=orthogonalEdgeStyle;rounded=0;orthogonalLoop=1;jettySize=auto;html=1;exitX=1;exitY=0.5;exitDx=0;exitDy=0;entryX=0;entryY=0.5;entryDx=0;entryDy=0;" edge="1" parent="1" source="FpYJ0FEo_ezxTA9CipsX-7" target="FpYJ0FEo_ezxTA9CipsX-12">
          <mxGeometry relative="1" as="geometry" />
        </mxCell>
        <mxCell id="FpYJ0FEo_ezxTA9CipsX-24" value="defer" style="edgeLabel;html=1;align=center;verticalAlign=middle;resizable=0;points=[];" connectable="0" vertex="1" parent="FpYJ0FEo_ezxTA9CipsX-23">
          <mxGeometry relative="1" as="geometry">
            <mxPoint as="offset" />
          </mxGeometry>
        </mxCell>
        <mxCell id="FpYJ0FEo_ezxTA9CipsX-7" value="guide.css" style="rounded=1;whiteSpace=wrap;html=1;sketch=1;curveFitting=1;jiggle=2;" vertex="1" parent="1">
          <mxGeometry x="210" y="360" width="120" height="60" as="geometry" />
        </mxCell>
        <mxCell id="FpYJ0FEo_ezxTA9CipsX-12" value="guide.html" style="rounded=1;whiteSpace=wrap;html=1;sketch=1;curveFitting=1;jiggle=2;" vertex="1" parent="1">
          <mxGeometry x="450" y="360" width="160" height="60" as="geometry" />
        </mxCell>
        <mxCell id="FpYJ0FEo_ezxTA9CipsX-17" style="edgeStyle=orthogonalEdgeStyle;rounded=0;orthogonalLoop=1;jettySize=auto;html=1;entryX=1;entryY=0.5;entryDx=0;entryDy=0;" edge="1" parent="1" source="FpYJ0FEo_ezxTA9CipsX-6" target="FpYJ0FEo_ezxTA9CipsX-12">
          <mxGeometry relative="1" as="geometry">
            <Array as="points">
              <mxPoint x="720" y="390" />
            </Array>
          </mxGeometry>
        </mxCell>
      </root>
    </mxGraphModel>
  </diagram>
</mxfile>
